# xmcd CD database file
#
# Track frame offsets:
#	183
#	11483
#	22133
#	32958
#	45933
#	59358
#	72858
#	85308
#	98958
#	110933
#	122633
#	135333
#	160683
#	173583
#	198783
#	213033
#	226158
#	239058
#	252258
#	266283
#	280133
#
# Disc length: 4204 seconds
#
# Revision: 1
# Processed by: cddbd v1.5.1PL0 Copyright (c) Steve Scherf et al.
# Submitted via: CDex 1.51
#
DISCID=1a106a15
DTITLE=IV Fats Navarro - Fat Boy
DYEAR=1991
DGENRE=Jazz
TTITLE0=Spianl
TTITLE1=Fat Girl
TTITLE2=Ed Pop
TTITLE3=The Tadd Walk
TTITLE4=A Bebop Carol
TTITLE5=Our Delight
TTITLE6=The Chase
TTITLE7=Dameronia
TTITLE8=Barry's Bop
TTITLE9=Bebop Romp
TTITLE10=Fats Blows
TTITLE11=Ko Ko
TTITLE12=Lady Bird
TTITLE13=Double talk
TTITLE14=Boperation
TTITLE15=Sid's Delight
TTITLE16=52nd Street Theme
TTITLE17=Dance of the infields
TTITLE18=Wail
TTITLE19=Bouncing with Bud
TTITLE20=Ornithology
EXTD=YEAR: 1991
EXTT0=
EXTT1=
EXTT2=
EXTT3=
EXTT4=
EXTT5=
EXTT6=
EXTT7=
EXTT8=
EXTT9=
EXTT10=
EXTT11=
EXTT12=
EXTT13=
EXTT14=
EXTT15=
EXTT16=
EXTT17=
EXTT18=
EXTT19=
EXTT20=
PLAYORDER=
